<mxfile host="app.diagrams.net" modified="2022-12-12T13:03:50.178Z" agent="5.0 (Windows NT 10.0; Win64; x64) AppleWebKit/537.36 (KHTML, like Gecko) Chrome/108.0.0.0 Safari/537.36" etag="npbj-cCAZ5Bcw66W6lXa" version="20.6.2" type="github">
  <diagram id="C5RBs43oDa-KdzZeNtuy" name="Page-1">
    <mxGraphModel dx="2249" dy="2040" grid="1" gridSize="10" guides="1" tooltips="1" connect="1" arrows="1" fold="1" page="1" pageScale="1" pageWidth="827" pageHeight="1169" math="0" shadow="0">
      <root>
        <mxCell id="WIyWlLk6GJQsqaUBKTNV-0" />
        <mxCell id="WIyWlLk6GJQsqaUBKTNV-1" parent="WIyWlLk6GJQsqaUBKTNV-0" />
        <mxCell id="PATcyT5YbckNSoC44WeG-53" value="Yes" style="edgeStyle=orthogonalEdgeStyle;rounded=0;orthogonalLoop=1;jettySize=auto;html=1;exitX=1;exitY=0.5;exitDx=0;exitDy=0;entryX=0;entryY=0.5;entryDx=0;entryDy=0;fontSize=13;" parent="WIyWlLk6GJQsqaUBKTNV-1" source="WIyWlLk6GJQsqaUBKTNV-10" target="PATcyT5YbckNSoC44WeG-38" edge="1">
          <mxGeometry relative="1" as="geometry" />
        </mxCell>
        <mxCell id="WIyWlLk6GJQsqaUBKTNV-10" value="Lights Selected?" style="rhombus;whiteSpace=wrap;html=1;shadow=0;fontFamily=Helvetica;fontSize=11;align=center;strokeWidth=1;spacing=6;spacingTop=-4;" parent="WIyWlLk6GJQsqaUBKTNV-1" vertex="1">
          <mxGeometry x="50" y="1095" width="110" height="100" as="geometry" />
        </mxCell>
        <mxCell id="JyNFl8jQq7KqVQruK0Q3-26" style="edgeStyle=orthogonalEdgeStyle;rounded=0;orthogonalLoop=1;jettySize=auto;html=1;exitX=0.5;exitY=1;exitDx=0;exitDy=0;fontSize=13;entryX=0.5;entryY=0;entryDx=0;entryDy=0;" edge="1" parent="WIyWlLk6GJQsqaUBKTNV-1" source="PATcyT5YbckNSoC44WeG-19" target="PATcyT5YbckNSoC44WeG-27">
          <mxGeometry relative="1" as="geometry">
            <mxPoint x="120.09090909090901" y="340" as="targetPoint" />
          </mxGeometry>
        </mxCell>
        <mxCell id="PATcyT5YbckNSoC44WeG-19" value="Turn hot air on" style="rounded=0;whiteSpace=wrap;html=1;fontSize=13;" parent="WIyWlLk6GJQsqaUBKTNV-1" vertex="1">
          <mxGeometry x="170" y="250" width="120" height="60" as="geometry" />
        </mxCell>
        <mxCell id="JyNFl8jQq7KqVQruK0Q3-24" style="edgeStyle=orthogonalEdgeStyle;rounded=0;orthogonalLoop=1;jettySize=auto;html=1;exitX=0.5;exitY=1;exitDx=0;exitDy=0;entryX=0.5;entryY=0;entryDx=0;entryDy=0;fontSize=13;" edge="1" parent="WIyWlLk6GJQsqaUBKTNV-1" source="PATcyT5YbckNSoC44WeG-20" target="PATcyT5YbckNSoC44WeG-27">
          <mxGeometry relative="1" as="geometry" />
        </mxCell>
        <mxCell id="PATcyT5YbckNSoC44WeG-20" value="Turn cold air on" style="rounded=0;whiteSpace=wrap;html=1;fontSize=13;" parent="WIyWlLk6GJQsqaUBKTNV-1" vertex="1">
          <mxGeometry x="-36.25" y="250" width="120" height="60" as="geometry" />
        </mxCell>
        <mxCell id="JyNFl8jQq7KqVQruK0Q3-20" value="Yes" style="edgeStyle=orthogonalEdgeStyle;rounded=0;orthogonalLoop=1;jettySize=auto;html=1;fontSize=13;" edge="1" parent="WIyWlLk6GJQsqaUBKTNV-1" source="PATcyT5YbckNSoC44WeG-27" target="PATcyT5YbckNSoC44WeG-50">
          <mxGeometry relative="1" as="geometry" />
        </mxCell>
        <mxCell id="JyNFl8jQq7KqVQruK0Q3-27" value="No&lt;br style=&quot;font-size: 13px;&quot;&gt;" style="edgeStyle=orthogonalEdgeStyle;rounded=0;orthogonalLoop=1;jettySize=auto;html=1;exitX=0;exitY=0.5;exitDx=0;exitDy=0;entryX=0;entryY=0.5;entryDx=0;entryDy=0;fontSize=13;" edge="1" parent="WIyWlLk6GJQsqaUBKTNV-1" source="PATcyT5YbckNSoC44WeG-27" target="JyNFl8jQq7KqVQruK0Q3-11">
          <mxGeometry relative="1" as="geometry">
            <Array as="points">
              <mxPoint x="-70" y="445" />
              <mxPoint x="-70" y="125" />
            </Array>
          </mxGeometry>
        </mxCell>
        <mxCell id="PATcyT5YbckNSoC44WeG-27" value="Selected Temperature achieved?" style="rhombus;whiteSpace=wrap;html=1;fontSize=13;" parent="WIyWlLk6GJQsqaUBKTNV-1" vertex="1">
          <mxGeometry x="50" y="370" width="160" height="150" as="geometry" />
        </mxCell>
        <mxCell id="PATcyT5YbckNSoC44WeG-36" value="Immediate&amp;nbsp;" style="edgeStyle=orthogonalEdgeStyle;rounded=0;orthogonalLoop=1;jettySize=auto;html=1;exitX=1;exitY=0.5;exitDx=0;exitDy=0;fontSize=13;entryX=0;entryY=0.5;entryDx=0;entryDy=0;" parent="WIyWlLk6GJQsqaUBKTNV-1" source="PATcyT5YbckNSoC44WeG-38" target="PATcyT5YbckNSoC44WeG-80" edge="1">
          <mxGeometry x="-0.2667" relative="1" as="geometry">
            <mxPoint as="offset" />
          </mxGeometry>
        </mxCell>
        <mxCell id="PATcyT5YbckNSoC44WeG-79" value="Schedule Added" style="edgeStyle=orthogonalEdgeStyle;rounded=0;orthogonalLoop=1;jettySize=auto;html=1;exitX=0.5;exitY=1;exitDx=0;exitDy=0;entryX=0.5;entryY=0;entryDx=0;entryDy=0;fontSize=13;" parent="WIyWlLk6GJQsqaUBKTNV-1" source="PATcyT5YbckNSoC44WeG-38" target="PATcyT5YbckNSoC44WeG-78" edge="1">
          <mxGeometry relative="1" as="geometry" />
        </mxCell>
        <mxCell id="PATcyT5YbckNSoC44WeG-38" value="Immediate response or Scheduled response" style="rhombus;whiteSpace=wrap;html=1;fontSize=11;" parent="WIyWlLk6GJQsqaUBKTNV-1" vertex="1">
          <mxGeometry x="205" y="1085" width="145" height="120" as="geometry" />
        </mxCell>
        <mxCell id="PATcyT5YbckNSoC44WeG-48" style="edgeStyle=orthogonalEdgeStyle;rounded=0;orthogonalLoop=1;jettySize=auto;html=1;exitX=1;exitY=0.5;exitDx=0;exitDy=0;fontSize=11;" parent="WIyWlLk6GJQsqaUBKTNV-1" source="PATcyT5YbckNSoC44WeG-40" target="PATcyT5YbckNSoC44WeG-44" edge="1">
          <mxGeometry relative="1" as="geometry">
            <mxPoint x="631" y="1145" as="targetPoint" />
          </mxGeometry>
        </mxCell>
        <mxCell id="PATcyT5YbckNSoC44WeG-40" value="Turn light on" style="rounded=0;whiteSpace=wrap;html=1;fontSize=11;" parent="WIyWlLk6GJQsqaUBKTNV-1" vertex="1">
          <mxGeometry x="531" y="1085" width="120" height="60" as="geometry" />
        </mxCell>
        <mxCell id="PATcyT5YbckNSoC44WeG-42" value="Turn light off" style="rounded=0;whiteSpace=wrap;html=1;fontSize=11;" parent="WIyWlLk6GJQsqaUBKTNV-1" vertex="1">
          <mxGeometry x="560" y="1200" width="120" height="60" as="geometry" />
        </mxCell>
        <mxCell id="PATcyT5YbckNSoC44WeG-71" value="Yes" style="edgeStyle=orthogonalEdgeStyle;rounded=0;orthogonalLoop=1;jettySize=auto;html=1;exitX=0.5;exitY=1;exitDx=0;exitDy=0;entryX=0.5;entryY=0;entryDx=0;entryDy=0;fontSize=13;" parent="WIyWlLk6GJQsqaUBKTNV-1" source="PATcyT5YbckNSoC44WeG-44" target="PATcyT5YbckNSoC44WeG-54" edge="1">
          <mxGeometry relative="1" as="geometry" />
        </mxCell>
        <mxCell id="PATcyT5YbckNSoC44WeG-44" value="Off Timer enabled?" style="rhombus;whiteSpace=wrap;html=1;fontSize=11;" parent="WIyWlLk6GJQsqaUBKTNV-1" vertex="1">
          <mxGeometry x="681" y="1070" width="110" height="90" as="geometry" />
        </mxCell>
        <mxCell id="PATcyT5YbckNSoC44WeG-49" value="Toilet Selected" style="rhombus;whiteSpace=wrap;html=1;fontSize=11;" parent="WIyWlLk6GJQsqaUBKTNV-1" vertex="1">
          <mxGeometry x="65" y="1235" width="80" height="80" as="geometry" />
        </mxCell>
        <mxCell id="PATcyT5YbckNSoC44WeG-50" value="Stop Air Conditioning Unit" style="rounded=1;whiteSpace=wrap;html=1;fontSize=13;" parent="WIyWlLk6GJQsqaUBKTNV-1" vertex="1">
          <mxGeometry x="70" y="570" width="120" height="60" as="geometry" />
        </mxCell>
        <mxCell id="PATcyT5YbckNSoC44WeG-68" value="Yes" style="edgeStyle=orthogonalEdgeStyle;rounded=0;orthogonalLoop=1;jettySize=auto;html=1;exitX=0;exitY=0.5;exitDx=0;exitDy=0;entryX=0.75;entryY=1;entryDx=0;entryDy=0;fontSize=13;" parent="WIyWlLk6GJQsqaUBKTNV-1" source="PATcyT5YbckNSoC44WeG-54" target="PATcyT5YbckNSoC44WeG-42" edge="1">
          <mxGeometry relative="1" as="geometry" />
        </mxCell>
        <mxCell id="PATcyT5YbckNSoC44WeG-54" value="Timer Reached?" style="shape=hexagon;perimeter=hexagonPerimeter2;whiteSpace=wrap;html=1;fixedSize=1;fontSize=11;" parent="WIyWlLk6GJQsqaUBKTNV-1" vertex="1">
          <mxGeometry x="687.25" y="1270" width="97.5" height="60" as="geometry" />
        </mxCell>
        <mxCell id="PATcyT5YbckNSoC44WeG-88" value="No" style="edgeStyle=orthogonalEdgeStyle;rounded=0;orthogonalLoop=1;jettySize=auto;html=1;exitX=0.5;exitY=1;exitDx=0;exitDy=0;fontSize=13;entryX=0;entryY=0.5;entryDx=0;entryDy=0;" parent="WIyWlLk6GJQsqaUBKTNV-1" source="PATcyT5YbckNSoC44WeG-78" target="PATcyT5YbckNSoC44WeG-78" edge="1">
          <mxGeometry relative="1" as="geometry">
            <mxPoint x="220" y="1430" as="targetPoint" />
            <Array as="points">
              <mxPoint x="278" y="1365" />
              <mxPoint x="200" y="1365" />
              <mxPoint x="200" y="1300" />
            </Array>
          </mxGeometry>
        </mxCell>
        <mxCell id="PATcyT5YbckNSoC44WeG-89" value="Yes" style="edgeStyle=orthogonalEdgeStyle;rounded=0;orthogonalLoop=1;jettySize=auto;html=1;exitX=1;exitY=0.5;exitDx=0;exitDy=0;entryX=0.5;entryY=1;entryDx=0;entryDy=0;fontSize=13;" parent="WIyWlLk6GJQsqaUBKTNV-1" source="PATcyT5YbckNSoC44WeG-78" target="PATcyT5YbckNSoC44WeG-80" edge="1">
          <mxGeometry relative="1" as="geometry" />
        </mxCell>
        <mxCell id="PATcyT5YbckNSoC44WeG-78" value="Scheduled&amp;nbsp;&lt;br&gt;Time met?" style="rhombus;whiteSpace=wrap;html=1;fontSize=13;" parent="WIyWlLk6GJQsqaUBKTNV-1" vertex="1">
          <mxGeometry x="232.5" y="1250" width="90" height="100" as="geometry" />
        </mxCell>
        <mxCell id="PATcyT5YbckNSoC44WeG-85" value="On" style="edgeStyle=orthogonalEdgeStyle;rounded=0;orthogonalLoop=1;jettySize=auto;html=1;exitX=0.5;exitY=0;exitDx=0;exitDy=0;entryX=0;entryY=0.5;entryDx=0;entryDy=0;fontSize=13;" parent="WIyWlLk6GJQsqaUBKTNV-1" source="PATcyT5YbckNSoC44WeG-80" target="PATcyT5YbckNSoC44WeG-40" edge="1">
          <mxGeometry x="-0.1391" relative="1" as="geometry">
            <mxPoint x="510" y="1235" as="sourcePoint" />
            <mxPoint as="offset" />
          </mxGeometry>
        </mxCell>
        <mxCell id="PATcyT5YbckNSoC44WeG-90" value="Off" style="edgeStyle=orthogonalEdgeStyle;rounded=0;orthogonalLoop=1;jettySize=auto;html=1;exitX=1;exitY=0.5;exitDx=0;exitDy=0;entryX=0;entryY=0.5;entryDx=0;entryDy=0;fontSize=13;" parent="WIyWlLk6GJQsqaUBKTNV-1" source="PATcyT5YbckNSoC44WeG-80" target="PATcyT5YbckNSoC44WeG-42" edge="1">
          <mxGeometry relative="1" as="geometry" />
        </mxCell>
        <mxCell id="PATcyT5YbckNSoC44WeG-80" value="light on or&amp;nbsp;&lt;br&gt;off?" style="rhombus;whiteSpace=wrap;html=1;fontSize=13;" parent="WIyWlLk6GJQsqaUBKTNV-1" vertex="1">
          <mxGeometry x="400" y="1180" width="90" height="100" as="geometry" />
        </mxCell>
        <mxCell id="PATcyT5YbckNSoC44WeG-86" value="No" style="edgeStyle=orthogonalEdgeStyle;rounded=0;orthogonalLoop=1;jettySize=auto;html=1;exitX=0.5;exitY=1;exitDx=0;exitDy=0;entryX=1;entryY=0.5;entryDx=0;entryDy=0;fontSize=13;" parent="WIyWlLk6GJQsqaUBKTNV-1" source="PATcyT5YbckNSoC44WeG-54" target="PATcyT5YbckNSoC44WeG-54" edge="1">
          <mxGeometry relative="1" as="geometry" />
        </mxCell>
        <mxCell id="JyNFl8jQq7KqVQruK0Q3-49" value="" style="edgeStyle=orthogonalEdgeStyle;rounded=0;orthogonalLoop=1;jettySize=auto;html=1;fontSize=13;" edge="1" parent="WIyWlLk6GJQsqaUBKTNV-1" source="JyNFl8jQq7KqVQruK0Q3-0" target="JyNFl8jQq7KqVQruK0Q3-8">
          <mxGeometry relative="1" as="geometry" />
        </mxCell>
        <mxCell id="JyNFl8jQq7KqVQruK0Q3-0" value="Heating application selected" style="rounded=0;whiteSpace=wrap;html=1;fontSize=13;" vertex="1" parent="WIyWlLk6GJQsqaUBKTNV-1">
          <mxGeometry x="320" y="-40" width="190" height="40" as="geometry" />
        </mxCell>
        <mxCell id="JyNFl8jQq7KqVQruK0Q3-10" value="Immediate" style="edgeStyle=orthogonalEdgeStyle;rounded=0;orthogonalLoop=1;jettySize=auto;html=1;fontSize=13;entryX=1;entryY=0.5;entryDx=0;entryDy=0;" edge="1" parent="WIyWlLk6GJQsqaUBKTNV-1" source="JyNFl8jQq7KqVQruK0Q3-8" target="JyNFl8jQq7KqVQruK0Q3-11">
          <mxGeometry relative="1" as="geometry">
            <mxPoint x="412.47058823529414" y="300.02757352941194" as="targetPoint" />
          </mxGeometry>
        </mxCell>
        <mxCell id="JyNFl8jQq7KqVQruK0Q3-14" value="Scheduled" style="edgeStyle=orthogonalEdgeStyle;rounded=0;orthogonalLoop=1;jettySize=auto;html=1;fontSize=13;" edge="1" parent="WIyWlLk6GJQsqaUBKTNV-1" source="JyNFl8jQq7KqVQruK0Q3-8" target="JyNFl8jQq7KqVQruK0Q3-13">
          <mxGeometry relative="1" as="geometry" />
        </mxCell>
        <mxCell id="JyNFl8jQq7KqVQruK0Q3-8" value="Immediate response or Scheduled response" style="rhombus;whiteSpace=wrap;html=1;fontSize=13;" vertex="1" parent="WIyWlLk6GJQsqaUBKTNV-1">
          <mxGeometry x="340" y="60" width="150" height="140" as="geometry" />
        </mxCell>
        <mxCell id="JyNFl8jQq7KqVQruK0Q3-22" value="Lower" style="edgeStyle=orthogonalEdgeStyle;rounded=0;orthogonalLoop=1;jettySize=auto;html=1;exitX=0.375;exitY=1;exitDx=0;exitDy=0;entryX=0.5;entryY=0;entryDx=0;entryDy=0;fontSize=13;" edge="1" parent="WIyWlLk6GJQsqaUBKTNV-1" source="JyNFl8jQq7KqVQruK0Q3-11" target="PATcyT5YbckNSoC44WeG-20">
          <mxGeometry relative="1" as="geometry" />
        </mxCell>
        <mxCell id="JyNFl8jQq7KqVQruK0Q3-23" value="Higher" style="edgeStyle=orthogonalEdgeStyle;rounded=0;orthogonalLoop=1;jettySize=auto;html=1;exitX=0.625;exitY=1;exitDx=0;exitDy=0;entryX=0.5;entryY=0;entryDx=0;entryDy=0;fontSize=13;" edge="1" parent="WIyWlLk6GJQsqaUBKTNV-1" source="JyNFl8jQq7KqVQruK0Q3-11" target="PATcyT5YbckNSoC44WeG-19">
          <mxGeometry relative="1" as="geometry" />
        </mxCell>
        <mxCell id="JyNFl8jQq7KqVQruK0Q3-11" value="&#xa;&lt;span style=&quot;color: rgb(0, 0, 0); font-family: Helvetica; font-size: 13px; font-style: normal; font-variant-ligatures: normal; font-variant-caps: normal; font-weight: 400; letter-spacing: normal; orphans: 2; text-align: center; text-indent: 0px; text-transform: none; widows: 2; word-spacing: 0px; -webkit-text-stroke-width: 0px; background-color: rgb(248, 249, 250); text-decoration-thickness: initial; text-decoration-style: initial; text-decoration-color: initial; float: none; display: inline !important;&quot;&gt;Temperature Selected&lt;/span&gt;&lt;br style=&quot;color: rgb(0, 0, 0); font-family: Helvetica; font-size: 13px; font-style: normal; font-variant-ligatures: normal; font-variant-caps: normal; font-weight: 400; letter-spacing: normal; orphans: 2; text-align: center; text-indent: 0px; text-transform: none; widows: 2; word-spacing: 0px; -webkit-text-stroke-width: 0px; background-color: rgb(248, 249, 250); text-decoration-thickness: initial; text-decoration-style: initial; text-decoration-color: initial;&quot;&gt;&lt;span style=&quot;color: rgb(0, 0, 0); font-family: Helvetica; font-size: 13px; font-style: normal; font-variant-ligatures: normal; font-variant-caps: normal; font-weight: 400; letter-spacing: normal; orphans: 2; text-align: center; text-indent: 0px; text-transform: none; widows: 2; word-spacing: 0px; -webkit-text-stroke-width: 0px; background-color: rgb(248, 249, 250); text-decoration-thickness: initial; text-decoration-style: initial; text-decoration-color: initial; float: none; display: inline !important;&quot;&gt;Higher or lower than room Temperature?&lt;/span&gt;&#xa;&#xa;" style="shape=hexagon;perimeter=hexagonPerimeter2;whiteSpace=wrap;html=1;fixedSize=1;fontSize=13;" vertex="1" parent="WIyWlLk6GJQsqaUBKTNV-1">
          <mxGeometry x="20" y="70" width="170" height="110" as="geometry" />
        </mxCell>
        <mxCell id="JyNFl8jQq7KqVQruK0Q3-39" value="" style="edgeStyle=orthogonalEdgeStyle;rounded=0;orthogonalLoop=1;jettySize=auto;html=1;fontSize=13;" edge="1" parent="WIyWlLk6GJQsqaUBKTNV-1" source="JyNFl8jQq7KqVQruK0Q3-13" target="JyNFl8jQq7KqVQruK0Q3-38">
          <mxGeometry relative="1" as="geometry" />
        </mxCell>
        <mxCell id="JyNFl8jQq7KqVQruK0Q3-13" value="Scheduled ON&lt;br style=&quot;font-size: 13px;&quot;&gt;&amp;nbsp;time reached?" style="rhombus;whiteSpace=wrap;html=1;fontSize=13;" vertex="1" parent="WIyWlLk6GJQsqaUBKTNV-1">
          <mxGeometry x="591.92" y="75" width="130" height="110" as="geometry" />
        </mxCell>
        <mxCell id="JyNFl8jQq7KqVQruK0Q3-28" style="edgeStyle=orthogonalEdgeStyle;rounded=0;orthogonalLoop=1;jettySize=auto;html=1;exitX=0.5;exitY=1;exitDx=0;exitDy=0;fontSize=13;entryX=0.5;entryY=0;entryDx=0;entryDy=0;" edge="1" parent="WIyWlLk6GJQsqaUBKTNV-1" source="JyNFl8jQq7KqVQruK0Q3-29" target="JyNFl8jQq7KqVQruK0Q3-34">
          <mxGeometry relative="1" as="geometry">
            <mxPoint x="650.170909090909" y="510" as="targetPoint" />
          </mxGeometry>
        </mxCell>
        <mxCell id="JyNFl8jQq7KqVQruK0Q3-29" value="Turn hot air on" style="rounded=0;whiteSpace=wrap;html=1;fontSize=13;" vertex="1" parent="WIyWlLk6GJQsqaUBKTNV-1">
          <mxGeometry x="700.08" y="420" width="120" height="60" as="geometry" />
        </mxCell>
        <mxCell id="JyNFl8jQq7KqVQruK0Q3-30" style="edgeStyle=orthogonalEdgeStyle;rounded=0;orthogonalLoop=1;jettySize=auto;html=1;exitX=0.5;exitY=1;exitDx=0;exitDy=0;entryX=0.5;entryY=0;entryDx=0;entryDy=0;fontSize=13;" edge="1" parent="WIyWlLk6GJQsqaUBKTNV-1" source="JyNFl8jQq7KqVQruK0Q3-31" target="JyNFl8jQq7KqVQruK0Q3-34">
          <mxGeometry relative="1" as="geometry" />
        </mxCell>
        <mxCell id="JyNFl8jQq7KqVQruK0Q3-31" value="Turn cold air on" style="rounded=0;whiteSpace=wrap;html=1;fontSize=13;" vertex="1" parent="WIyWlLk6GJQsqaUBKTNV-1">
          <mxGeometry x="493.83" y="420" width="120" height="60" as="geometry" />
        </mxCell>
        <mxCell id="JyNFl8jQq7KqVQruK0Q3-41" value="Yes" style="edgeStyle=orthogonalEdgeStyle;rounded=0;orthogonalLoop=1;jettySize=auto;html=1;fontSize=13;" edge="1" parent="WIyWlLk6GJQsqaUBKTNV-1" source="JyNFl8jQq7KqVQruK0Q3-34" target="JyNFl8jQq7KqVQruK0Q3-35">
          <mxGeometry relative="1" as="geometry" />
        </mxCell>
        <mxCell id="JyNFl8jQq7KqVQruK0Q3-47" value="No" style="edgeStyle=orthogonalEdgeStyle;rounded=0;orthogonalLoop=1;jettySize=auto;html=1;fontSize=13;" edge="1" parent="WIyWlLk6GJQsqaUBKTNV-1" source="JyNFl8jQq7KqVQruK0Q3-34" target="JyNFl8jQq7KqVQruK0Q3-44">
          <mxGeometry relative="1" as="geometry" />
        </mxCell>
        <mxCell id="JyNFl8jQq7KqVQruK0Q3-34" value="Selected Temperature achieved?" style="rhombus;whiteSpace=wrap;html=1;fontSize=13;" vertex="1" parent="WIyWlLk6GJQsqaUBKTNV-1">
          <mxGeometry x="580.08" y="540" width="147.5" height="120" as="geometry" />
        </mxCell>
        <mxCell id="JyNFl8jQq7KqVQruK0Q3-35" value="Stop Air Conditioning Unit" style="rounded=1;whiteSpace=wrap;html=1;fontSize=13;" vertex="1" parent="WIyWlLk6GJQsqaUBKTNV-1">
          <mxGeometry x="800" y="570" width="120" height="60" as="geometry" />
        </mxCell>
        <mxCell id="JyNFl8jQq7KqVQruK0Q3-36" value="Lower" style="edgeStyle=orthogonalEdgeStyle;rounded=0;orthogonalLoop=1;jettySize=auto;html=1;exitX=0.375;exitY=1;exitDx=0;exitDy=0;entryX=0.5;entryY=0;entryDx=0;entryDy=0;fontSize=13;" edge="1" parent="WIyWlLk6GJQsqaUBKTNV-1" source="JyNFl8jQq7KqVQruK0Q3-38" target="JyNFl8jQq7KqVQruK0Q3-31">
          <mxGeometry relative="1" as="geometry" />
        </mxCell>
        <mxCell id="JyNFl8jQq7KqVQruK0Q3-37" value="Higher" style="edgeStyle=orthogonalEdgeStyle;rounded=0;orthogonalLoop=1;jettySize=auto;html=1;exitX=0.625;exitY=1;exitDx=0;exitDy=0;entryX=0.5;entryY=0;entryDx=0;entryDy=0;fontSize=13;" edge="1" parent="WIyWlLk6GJQsqaUBKTNV-1" source="JyNFl8jQq7KqVQruK0Q3-38" target="JyNFl8jQq7KqVQruK0Q3-29">
          <mxGeometry relative="1" as="geometry" />
        </mxCell>
        <mxCell id="JyNFl8jQq7KqVQruK0Q3-38" value="&#xa;&lt;span style=&quot;color: rgb(0, 0, 0); font-family: Helvetica; font-size: 13px; font-style: normal; font-variant-ligatures: normal; font-variant-caps: normal; font-weight: 400; letter-spacing: normal; orphans: 2; text-align: center; text-indent: 0px; text-transform: none; widows: 2; word-spacing: 0px; -webkit-text-stroke-width: 0px; background-color: rgb(248, 249, 250); text-decoration-thickness: initial; text-decoration-style: initial; text-decoration-color: initial; float: none; display: inline !important;&quot;&gt;Temperature Selected&lt;/span&gt;&lt;br style=&quot;color: rgb(0, 0, 0); font-family: Helvetica; font-size: 13px; font-style: normal; font-variant-ligatures: normal; font-variant-caps: normal; font-weight: 400; letter-spacing: normal; orphans: 2; text-align: center; text-indent: 0px; text-transform: none; widows: 2; word-spacing: 0px; -webkit-text-stroke-width: 0px; background-color: rgb(248, 249, 250); text-decoration-thickness: initial; text-decoration-style: initial; text-decoration-color: initial;&quot;&gt;&lt;span style=&quot;color: rgb(0, 0, 0); font-family: Helvetica; font-size: 13px; font-style: normal; font-variant-ligatures: normal; font-variant-caps: normal; font-weight: 400; letter-spacing: normal; orphans: 2; text-align: center; text-indent: 0px; text-transform: none; widows: 2; word-spacing: 0px; -webkit-text-stroke-width: 0px; background-color: rgb(248, 249, 250); text-decoration-thickness: initial; text-decoration-style: initial; text-decoration-color: initial; float: none; display: inline !important;&quot;&gt;Higher or lower than room Temperature?&lt;/span&gt;&#xa;&#xa;" style="shape=hexagon;perimeter=hexagonPerimeter2;whiteSpace=wrap;html=1;fixedSize=1;fontSize=13;" vertex="1" parent="WIyWlLk6GJQsqaUBKTNV-1">
          <mxGeometry x="583.83" y="240" width="146.17" height="110" as="geometry" />
        </mxCell>
        <mxCell id="JyNFl8jQq7KqVQruK0Q3-42" value="No" style="edgeStyle=orthogonalEdgeStyle;rounded=0;orthogonalLoop=1;jettySize=auto;html=1;exitX=1;exitY=0.5;exitDx=0;exitDy=0;entryX=0.5;entryY=0;entryDx=0;entryDy=0;fontSize=13;" edge="1" parent="WIyWlLk6GJQsqaUBKTNV-1" source="JyNFl8jQq7KqVQruK0Q3-13" target="JyNFl8jQq7KqVQruK0Q3-13">
          <mxGeometry relative="1" as="geometry">
            <Array as="points">
              <mxPoint x="780" y="130" />
              <mxPoint x="780" y="40" />
              <mxPoint x="657" y="40" />
            </Array>
          </mxGeometry>
        </mxCell>
        <mxCell id="JyNFl8jQq7KqVQruK0Q3-46" value="Yes" style="edgeStyle=orthogonalEdgeStyle;rounded=0;orthogonalLoop=1;jettySize=auto;html=1;fontSize=13;" edge="1" parent="WIyWlLk6GJQsqaUBKTNV-1" source="JyNFl8jQq7KqVQruK0Q3-44" target="JyNFl8jQq7KqVQruK0Q3-45">
          <mxGeometry relative="1" as="geometry" />
        </mxCell>
        <mxCell id="JyNFl8jQq7KqVQruK0Q3-48" value="No" style="edgeStyle=orthogonalEdgeStyle;rounded=0;orthogonalLoop=1;jettySize=auto;html=1;exitX=0;exitY=0.5;exitDx=0;exitDy=0;entryX=0;entryY=0.5;entryDx=0;entryDy=0;fontSize=13;" edge="1" parent="WIyWlLk6GJQsqaUBKTNV-1" source="JyNFl8jQq7KqVQruK0Q3-44" target="JyNFl8jQq7KqVQruK0Q3-38">
          <mxGeometry relative="1" as="geometry">
            <Array as="points">
              <mxPoint x="420" y="765" />
              <mxPoint x="420" y="295" />
            </Array>
          </mxGeometry>
        </mxCell>
        <mxCell id="JyNFl8jQq7KqVQruK0Q3-44" value="Scheduled OFF&lt;br style=&quot;font-size: 13px;&quot;&gt;&amp;nbsp;time reached?" style="rhombus;whiteSpace=wrap;html=1;fontSize=13;" vertex="1" parent="WIyWlLk6GJQsqaUBKTNV-1">
          <mxGeometry x="590" y="710" width="130" height="110" as="geometry" />
        </mxCell>
        <mxCell id="JyNFl8jQq7KqVQruK0Q3-45" value="Stop Air Conditioning Unit" style="rounded=1;whiteSpace=wrap;html=1;fontSize=13;" vertex="1" parent="WIyWlLk6GJQsqaUBKTNV-1">
          <mxGeometry x="800" y="735" width="120" height="60" as="geometry" />
        </mxCell>
      </root>
    </mxGraphModel>
  </diagram>
</mxfile>
